<svg xmlns="http://www.w3.org/2000/svg" viewBox="0 0 13.81 13.81"><defs><style>.a{fill:#2c3843;}</style></defs><title>SM_icon</title><path class="a" d="M0,6.9v6.9H13.81V0H0V6.9Zm7.63,0a0.16,0.16,0,0,1-.16-0.16V6.44a0.16,0.16,0,0,1,.16-0.16H8.79V5.11A0.16,0.16,0,0,1,9,5H9.29a0.16,0.16,0,0,1,.16.16V6.28h1.17a0.16,0.16,0,0,1,.16.16V6.77h0a0.16,0.16,0,0,1-.16.16H9.45V8.1a0.16,0.16,0,0,1-.16.16H9A0.16,0.16,0,0,1,8.79,8.1V6.94H7.63ZM6.14,10.3a3,3,0,0,1-.84.11,3.85,3.85,0,0,1-.94-0.11,1.83,1.83,0,0,1-1.19-.77A1,1,0,0,1,3,9a1.23,1.23,0,0,1,.12-0.52A2.24,2.24,0,0,1,5.21,7.4h0A0.82,0.82,0,0,1,5.13,7a0.87,0.87,0,0,1,0-.22A1.65,1.65,0,0,1,3.48,5.12,1.76,1.76,0,0,1,4.75,3.57a2.07,2.07,0,0,1,.68-0.12H7.48a0.16,0.16,0,0,1,.09.29l-0.46.33a0.16,0.16,0,0,1-.09,0H6.86a1.6,1.6,0,0,1,.34,1,1.53,1.53,0,0,1-.64,1.2,0.52,0.52,0,0,0-.33.46,1.36,1.36,0,0,0,.47.51,1.59,1.59,0,0,1,.79,1.47A1.67,1.67,0,0,1,6.14,10.3Z"/><path class="a" d="M6,8.08L5.87,8a1.58,1.58,0,0,0-.44-0.07h0a1.2,1.2,0,0,0-1.31.91,1.08,1.08,0,0,0,1.2.94c0.88,0,1.33-.31,1.33-0.91a0.75,0.75,0,0,0,0-.17A1.23,1.23,0,0,0,6,8.08Z"/><path class="a" d="M5.51,6.25h0a0.54,0.54,0,0,0,.42-0.19,1.1,1.1,0,0,0,.2-0.86,1.21,1.21,0,0,0-1-1.13h0a0.54,0.54,0,0,0-.41.19,1.06,1.06,0,0,0-.2.84,1.25,1.25,0,0,0,1,1.15h0Z"/></svg>