<svg xmlns="http://www.w3.org/2000/svg" viewBox="0 0 13.81 13.81"><defs><style>.a{fill:#2c3843;}</style></defs><title>SM_icon</title><path class="a" d="M0,6.9v6.9H13.81V0H0V6.9Zm3.71,3.73a0.54,0.54,0,0,1-.54-0.53V3.75a0.54,0.54,0,0,1,.54-0.53H10a0.54,0.54,0,0,1,.54.53V10.1a0.54,0.54,0,0,1-.54.53H3.71Z"/><path class="a" d="M8.13,6a1.1,1.1,0,0,0-1,.55V6.08H6C6,6.39,6,9.43,6,9.43H7.13V7.56a0.75,0.75,0,0,1,0-.27,0.59,0.59,0,0,1,1.14.35V9.43H9.41V7.51A1.29,1.29,0,0,0,8.13,6Z"/><rect class="a" x="4.29" y="6.08" width="1.11" height="3.35"/><path class="a" d="M4.85,4.47a0.58,0.58,0,1,0,0,1.16h0A0.58,0.58,0,1,0,4.85,4.47Z"/></svg>