<svg xmlns="http://www.w3.org/2000/svg" viewBox="0 0 13.81 13.81"><defs><style>.a{fill:#2c3843;}</style></defs><title>SM_icon</title><path class="a" d="M0,6.9v6.9H13.81V0H0V6.9Zm5.47,3.15A4.5,4.5,0,0,1,3,9.34l0.38,0a3.19,3.19,0,0,0,2-.68A1.59,1.59,0,0,1,3.9,7.58l0.3,0a1.59,1.59,0,0,0,.42-0.06A1.59,1.59,0,0,1,3.34,6V6a1.58,1.58,0,0,0,.72.2A1.59,1.59,0,0,1,3.57,4,4.51,4.51,0,0,0,6.85,5.71,1.59,1.59,0,0,1,9.55,4.26a3.17,3.17,0,0,0,1-.39,1.6,1.6,0,0,1-.7.88,3.16,3.16,0,0,0,.91-0.25,3.2,3.2,0,0,1-.79.82c0,0.07,0,.14,0,0.21A4.49,4.49,0,0,1,5.47,10.05Z"/></svg>