<svg xmlns="http://www.w3.org/2000/svg" viewBox="0 0 160.9 30"><path d="M0 29.3c.8-3 1.7-6 2.7-9 1-3 2.2-6.7 3.6-10.9s2.4-7.2 3-8.8c.2-.3.3-.4.3-.5H24c.2 0 .3.1.4.1.1.1.2.1.3.2.1.1.1.2.1.4l8.9 28.3c0 .3-.1.4-.3.5-.2.1-.5.1-1.1.1h-8.5c-.3 0-.7 0-1.1-.1s-.7-.1-.9-.2c-.2-.1-.4-.3-.5-.4v-1.3c-.1-.6-.4-1.2-.7-1.8s-.7-.8-1-.8h-6.7l-1 4.1c-.1.3-.9.5-2.2.5H8.1c-.6 0-1.4 0-2.5.1-1.1 0-1.9.1-2.5.1H.6c-.2 0-.3-.2-.6-.6zm13.4-11.8l.5.9h1.3c1 0 2-.1 2.8-.2.9-.1 1.3-.3 1.3-.6L16.9 6.5c-.2 0-.5.4-.9 1.3s-.7 1.9-1 3l-1.6 6.7zm21.4 11.1c-.2-.4-.4-.7-.5-.8V2.3H44c.2 0 .3 0 .4.1s.2.1.3.1c.1.1.2.1.3.2.1.1.1.2.1.3v8.6c.4-.9 1-2.1 1.8-3.7s1.3-2.8 1.7-3.5l.9-2 1.8-.1h6.2c2.1 0 3.1.2 3.1.5 0 .2-.1.4-.3.7-.6.9-1.6 2.7-3 5.2s-2.5 4.4-3.4 5.6l7.6 13.1v.6s0 .1-.1.1l-.1.1c-1.2-.1-3-.1-5.4-.1h-5.6v-.5c-.2-.3-.7-1-1.3-2.1-.7-1-1.2-1.8-1.5-2.4L45.3 19v8.6c-.2.5-.9.8-2.1.8h-8.4zm28.1-26h3.6c1.1 0 2.9 0 5.3-.1s4.3-.1 5.5-.1c1 0 2 .1 2.9.2s1.9.4 2.8.7 1.6.7 2.3 1.2c.6.5 1.1 1.1 1.5 1.9.4.8.6 1.7.6 2.7 0 1.4-.3 2.6-1 3.6s-1.7 1.8-3 2.5c.5.2 1 .5 1.4.9.4.4.7.7.9 1 .2.3.4.7.6 1.4.2.6.3 1.1.4 1.3 0 .2.1.7.3 1.5 0 .2.1.3.1.4.1.5.3 1.5.7 2.8.4 1.4.6 2.4.6 3.2 0 .5-.1.7-.4.7h-9.7c-.3-.1-.5-.5-.8-1.2-.2-.7-.4-1.5-.5-2.4l-.4-3.4c-.1-.3-.1-.5-.2-.6 0-.1-.1-.3-.2-.4s-.3-.3-.5-.4c-.2-.1-.5-.1-.8-.1H74v8.6l-.1.1-.1.1H62.9V2.6zm11 10.3s.1.1.1.2c.1.1.1.2.2.2.1.1.1.1.2.1.4 0 .8 0 1.2-.1s.8-.2 1.2-.4c.4-.2.7-.5 1-.9.3-.4.4-.9.4-1.4 0-1.3-1.3-2-3.9-2-.3.1-.4.2-.4.3v.7c0 .4 0 .9.1 1.7-.1.6-.1 1.2-.1 1.6zM90 4.3V2.9c.1-.2.3-.3.6-.3h1.9c1.3 0 3.3 0 5.9-.1 2.6-.1 4.6-.1 5.9-.1h5.2c.3 0 .5.2.5.5v6.5c0 .1 0 .1-.1.2l-.1.1s-.1.1-.2.1c-.1.1-.2.1-.2.2h-9v2.4h.9c.7 0 1.9 0 3.4-.1s2.7-.1 3.5-.1c.4 0 .6.1.7.2.1.1.2.3.2.6v4.6c-.1.2-.1.3-.2.3 0 .1-.1.1-.2.1-.5 0-1.3 0-2.5.1s-2.1.1-2.8.1h-3.1v2.5h1c.6 0 1.4 0 2.6-.1 1.1 0 2-.1 2.5-.1h2.5c.7 0 1.1.1 1.3.2.1.1.1.2.2.2v6.2c0 .3-.1.5-.2.6-.1.1-.3.2-.6.2H90V4.3zm22.5 0c0-.8 0-1.2.1-1.4.1-.2.3-.3.6-.3h1.9c1.3 0 3.3 0 5.9-.1 2.6-.1 4.6-.1 5.9-.1h5.2c.3 0 .5.2.5.5v6.5c0 .1 0 .1-.1.2l-.1.1s-.1.1-.2.1c-.1.1-.2.1-.2.2h-9v2.4h.9c.7 0 1.9 0 3.4-.1s2.7-.1 3.5-.1c.4 0 .6.1.7.2.1.1.2.3.2.6v4.6c-.1.2-.1.3-.2.3 0 .1-.1.1-.2.1-.5 0-1.3 0-2.5.1s-2.1.1-2.8.1h-3.1v2.5h1c.6 0 1.4 0 2.6-.1 1.1 0 2-.1 2.5-.1h2.5c.7 0 1.1.1 1.3.2.1.1.1.2.2.2v6.2c0 .3-.1.5-.2.6-.1.1-.3.2-.6.2H113l-.6-.5V4.3zm35.8 7.9c.1-.5.3-1.4.7-2.8s.6-2.5.7-3.3V4.5c0-.2.1-.3.1-.3s0-.1.1-.3.1-.3.1-.3.1-.1.1-.3.1-.2.2-.2.1-.1.2-.2.2-.1.3-.1h9.2l.2.2c.1.1.2.2.3.2.1.1.1.1.1.2l-6.5 23.3c-.1.5-.3 1-.5 1.4-.2.4-.5.6-.7.6h-13.3c-.2-.8-.4-1.8-.7-2.9-.3-1.1-.5-2.2-.8-3.4-.3-1.1-.5-2.1-.7-2.9l-4.7-16c0-.3.2-.5.6-.6v-.3h10.3s.1.1.1.2.1.2.2.3l2.8 16.1 1.7-4.7-.1-2.3z" fill="#fff"/></svg>