<?xml version="1.0" encoding="utf-8"?>
<!-- Generator: Adobe Illustrator 25.2.0, SVG Export Plug-In . SVG Version: 6.00 Build 0)  -->
<svg version="1.1" id="Layer_1" xmlns="http://www.w3.org/2000/svg" xmlns:xlink="http://www.w3.org/1999/xlink" x="0px" y="0px"
	 viewBox="0 0 160.9 30" style="enable-background:new 0 0 160.9 30;" xml:space="preserve">
<style type="text/css">
	.st0{fill:#FFFFFF;}
</style>
<g>
	<path class="st0" d="M0,29.3c0.8-3,1.7-6,2.7-9c1-3,2.2-6.7,3.6-10.9s2.4-7.2,3-8.8c0.2-0.3,0.3-0.4,0.3-0.5h3.3c0.8,0,1.9,0,3.4,0
		c1.5,0,2.6,0,3.4,0h3.3c0.2,0,0.4,0,0.5,0c0.1,0,0.3,0,0.5,0c0.2,0,0.3,0.1,0.4,0.1c0.1,0.1,0.2,0.1,0.3,0.2
		c0.1,0.1,0.1,0.2,0.1,0.4l8.9,28.3c0,0.3-0.1,0.4-0.3,0.5c-0.2,0.1-0.5,0.1-1.1,0.1h-1.8c-0.5,0-1.3,0-2.3,0c-1,0-1.8,0-2.3,0
		c-0.2,0-0.5,0-0.9,0c-0.5,0-0.9,0-1.2,0c-0.3,0-0.7,0-1.1-0.1s-0.7-0.1-0.9-0.2c-0.2-0.1-0.4-0.3-0.5-0.4v-1.3
		c-0.1-0.6-0.4-1.2-0.7-1.8s-0.7-0.8-1-0.8h-6.7l-1,4.1c-0.1,0.3-0.9,0.5-2.2,0.5H8.1c-0.6,0-1.4,0-2.5,0.1c-1.1,0-1.9,0.1-2.5,0.1
		H2.6c-0.2,0-0.5,0-1,0c-0.4,0-0.8,0-1,0C0.4,29.9,0.3,29.7,0,29.3z M13.4,17.5l0.5,0.9h1.3c1,0,2-0.1,2.8-0.2
		c0.9-0.1,1.3-0.3,1.3-0.6L16.9,6.5c-0.2,0-0.5,0.4-0.9,1.3c-0.4,0.9-0.7,1.9-1,3L13.4,17.5z"/>
	<path class="st0" d="M34.8,28.6c-0.2-0.4-0.4-0.7-0.5-0.8V2.3h8.6c0,0,0.1,0,0.3,0s0.3,0,0.4,0c0.1,0,0.2,0,0.4,0
		c0.2,0,0.3,0,0.4,0.1s0.2,0.1,0.3,0.1c0.1,0.1,0.2,0.1,0.3,0.2c0.1,0.1,0.1,0.2,0.1,0.3v8.6c0.4-0.9,1-2.1,1.8-3.7
		c0.8-1.6,1.3-2.8,1.7-3.5l0.9-2l1.8-0.1c0.3,0,0.6,0,1.2,0c0.5,0,0.9,0,1.2,0h1.5c0.1,0,0.3,0,0.5,0c0.2,0,0.3,0,0.4,0h1.1
		c0.1,0,0.1,0,0.3,0c2.1,0,3.1,0.2,3.1,0.5c0,0.2-0.1,0.4-0.3,0.7c-0.6,0.9-1.6,2.7-3,5.2c-1.4,2.5-2.5,4.4-3.4,5.6l7.6,13.1
		c0,0,0,0.1,0,0.1s0,0.1,0,0.2s0,0.1,0,0.1c0,0.1,0,0.1,0,0.1c0,0,0,0.1,0,0.1c0,0,0,0.1-0.1,0.1c0,0-0.1,0.1-0.1,0.1
		c-1.2-0.1-3-0.1-5.4-0.1c-0.3,0-0.8,0-1.5,0c-0.7,0-1.2,0-1.5,0h-2.6v-0.5c-0.2-0.3-0.7-1-1.3-2.1c-0.7-1-1.2-1.8-1.5-2.4l-2.2-4.1
		v8.6c-0.2,0.5-0.9,0.8-2.1,0.8H34.8z"/>
	<path class="st0" d="M62.9,2.6h3.6c1.1,0,2.9,0,5.3-0.1s4.3-0.1,5.5-0.1c1,0,2,0.1,2.9,0.2S82.1,3,83,3.3s1.6,0.7,2.3,1.2
		c0.6,0.5,1.1,1.1,1.5,1.9c0.4,0.8,0.6,1.7,0.6,2.7c0,1.4-0.3,2.6-1,3.6c-0.7,1-1.7,1.8-3,2.5c0.5,0.2,1,0.5,1.4,0.9
		c0.4,0.4,0.7,0.7,0.9,1c0.2,0.3,0.4,0.7,0.6,1.4c0.2,0.6,0.3,1.1,0.4,1.3c0,0.2,0.1,0.7,0.3,1.5c0,0.2,0.1,0.3,0.1,0.4
		c0.1,0.5,0.3,1.5,0.7,2.8c0.4,1.4,0.6,2.4,0.6,3.2c0,0.5-0.1,0.7-0.4,0.7c-0.8,0-1.9,0-3.5,0c-1.6,0-2.7,0-3.5,0
		c-0.3,0-0.8,0-1.4,0h-1.3c-0.3-0.1-0.5-0.5-0.8-1.2c-0.2-0.7-0.4-1.5-0.5-2.4l-0.4-3.4c-0.1-0.3-0.1-0.5-0.2-0.6
		c0-0.1-0.1-0.3-0.2-0.4s-0.3-0.3-0.5-0.4c-0.2-0.1-0.5-0.1-0.8-0.1h-0.9v7.8c0,0,0,0.1,0,0.2c0,0.1,0,0.1,0,0.2c0,0,0,0.1,0,0.1
		c0,0.1,0,0.1,0,0.1c0,0,0,0.1,0,0.1c0,0.1,0,0.1,0,0.1c0,0,0,0-0.1,0.1c0,0-0.1,0.1-0.1,0.1c0,0-0.1,0-0.2,0c-0.1,0-0.1,0-0.2,0
		H62.9V2.6z M73.9,12.9c0,0,0.1,0.1,0.1,0.2c0.1,0.1,0.1,0.2,0.2,0.2c0.1,0.1,0.1,0.1,0.2,0.1c0.4,0,0.8,0,1.2-0.1s0.8-0.2,1.2-0.4
		c0.4-0.2,0.7-0.5,1-0.9c0.3-0.4,0.4-0.9,0.4-1.4c0-1.3-1.3-2-3.9-2c-0.3,0.1-0.4,0.2-0.4,0.3v0.7c0,0.4,0,0.9,0.1,1.7
		C73.9,11.9,73.9,12.5,73.9,12.9z"/>
	<path class="st0" d="M90,4.3C90,3.5,90,3,90,2.9c0.1-0.2,0.3-0.3,0.6-0.3h0.5c0.2,0,0.3,0,0.4,0h1c1.3,0,3.3,0,5.9-0.1
		c2.6-0.1,4.6-0.1,5.9-0.1h5.2c0.3,0,0.5,0.2,0.5,0.5v6.5c0,0.1,0,0.1-0.1,0.2s-0.1,0.1-0.1,0.1c0,0-0.1,0.1-0.2,0.1
		c-0.1,0.1-0.2,0.1-0.2,0.2h-9v2.4h0.9c0.7,0,1.9,0,3.4-0.1c1.5-0.1,2.7-0.1,3.5-0.1c0.4,0,0.6,0.1,0.7,0.2c0.1,0.1,0.2,0.3,0.2,0.6
		c0,0.1,0,0.2,0,0.3c0,0.2,0,0.3,0,0.3v0.7c0,0.1,0,0.2,0,0.3c0,0.2,0,0.3,0,0.4v0.5c0,0.3,0,0.6,0,0.9c0,0.3,0,0.5,0,0.7v0.5
		c-0.1,0.2-0.1,0.3-0.2,0.3c0,0.1-0.1,0.1-0.2,0.1v0c-0.5,0-1.3,0-2.5,0.1c-1.2,0.1-2.1,0.1-2.8,0.1h-3.1v2.5c0.1,0,0.3,0,0.5,0
		s0.4,0,0.5,0c0.6,0,1.4,0,2.6-0.1c1.1,0,2-0.1,2.5-0.1h2.5c0.7,0,1.1,0.1,1.3,0.2c0.1,0.1,0.1,0.2,0.2,0.2v6.2
		c0,0.3-0.1,0.5-0.2,0.6c-0.1,0.1-0.3,0.2-0.6,0.2H90.5L90,27.9V4.3z"/>
	<path class="st0" d="M112.5,4.3c0-0.8,0-1.2,0.1-1.4c0.1-0.2,0.3-0.3,0.6-0.3h0.5c0.2,0,0.3,0,0.4,0h1c1.3,0,3.3,0,5.9-0.1
		c2.6-0.1,4.6-0.1,5.9-0.1h5.2c0.3,0,0.5,0.2,0.5,0.5v6.5c0,0.1,0,0.1-0.1,0.2s-0.1,0.1-0.1,0.1c0,0-0.1,0.1-0.2,0.1
		c-0.1,0.1-0.2,0.1-0.2,0.2h-9v2.4h0.9c0.7,0,1.9,0,3.4-0.1c1.5-0.1,2.7-0.1,3.5-0.1c0.4,0,0.6,0.1,0.7,0.2c0.1,0.1,0.2,0.3,0.2,0.6
		c0,0.1,0,0.2,0,0.3c0,0.2,0,0.3,0,0.3v0.7c0,0.1,0,0.2,0,0.3c0,0.2,0,0.3,0,0.4v0.5c0,0.3,0,0.6,0,0.9c0,0.3,0,0.5,0,0.7v0.5
		c-0.1,0.2-0.1,0.3-0.2,0.3c0,0.1-0.1,0.1-0.2,0.1v0c-0.5,0-1.3,0-2.5,0.1c-1.2,0.1-2.1,0.1-2.8,0.1h-3.1v2.5c0.1,0,0.3,0,0.5,0
		s0.4,0,0.5,0c0.6,0,1.4,0,2.6-0.1c1.1,0,2-0.1,2.5-0.1h2.5c0.7,0,1.1,0.1,1.3,0.2c0.1,0.1,0.1,0.2,0.2,0.2v6.2
		c0,0.3-0.1,0.5-0.2,0.6c-0.1,0.1-0.3,0.2-0.6,0.2h-19.2l-0.6-0.5V4.3z"/>
	<path class="st0" d="M148.3,12.2c0.1-0.5,0.3-1.4,0.7-2.8s0.6-2.5,0.7-3.3V4.8c0,0,0-0.1,0-0.3s0.1-0.3,0.1-0.3c0,0,0-0.1,0.1-0.3
		s0.1-0.3,0.1-0.3s0.1-0.1,0.1-0.3s0.1-0.2,0.2-0.2c0.1,0,0.1-0.1,0.2-0.2c0.1-0.1,0.2-0.1,0.3-0.1c0.1,0,0.3,0,0.4,0h8.8
		c0,0,0.1,0.1,0.2,0.2c0.1,0.1,0.2,0.2,0.3,0.2c0.1,0.1,0.1,0.1,0.1,0.2l-6.5,23.3c-0.1,0.5-0.3,1-0.5,1.4c-0.2,0.4-0.5,0.6-0.7,0.6
		h-13.3c-0.2-0.8-0.4-1.8-0.7-2.9c-0.3-1.1-0.5-2.2-0.8-3.4c-0.3-1.1-0.5-2.1-0.7-2.9l-4.7-16c0-0.3,0.2-0.5,0.6-0.6V2.6
		c0.8,0,1.9,0,3.5,0c1.6,0,2.7,0,3.4,0h3.2c0.1,0,0.2,0,0.2,0c0,0,0.1,0.1,0.1,0.2c0,0.1,0.1,0.2,0.2,0.3l2.8,16.1l1.7-4.7
		L148.3,12.2z"/>
</g>
</svg>
